<svg width="109" height="237" viewBox="0 0 109 237" fill="none" xmlns="http://www.w3.org/2000/svg">
<path d="M29.7656 2L107.005 32.2243V178.308L29.7656 216.928" stroke="white" stroke-width="3"/>
<path d="M50.7473 49.4796H15.7896L35.7654 59.926M50.7473 49.4796V148.245M50.7473 49.4796L35.7654 59.926M50.7473 49.4796V35.2345L35.7654 26.6875L50.7473 49.4796ZM50.7473 148.245L9.79688 171.987L35.7654 148.245M50.7473 148.245H35.7654M35.7654 148.245V59.926" stroke="white" stroke-width="3" stroke-linecap="square" stroke-linejoin="round"/>
<path d="M63.7165 59.3609V70.8836L50.923 59.3609M63.7165 59.3609L50.923 49.4844M63.7165 59.3609H50.923M50.923 49.4844H15.7746M50.923 49.4844V59.3609M15.7746 49.4844L3.78906 59.3609M15.7746 49.4844V148.25M3.78906 59.3609V138.373M3.78906 59.3609H50.923M3.78906 138.373L15.7746 148.25M3.78906 138.373H50.923M15.7746 148.25H50.923M50.923 148.25L63.7165 138.373M50.923 148.25V138.373M63.7165 138.373V100.513L50.923 138.373M63.7165 138.373H50.923" stroke="white" stroke-width="3" stroke-linecap="square" stroke-linejoin="round"/>
<path d="M3.208 178.024C3.35733 178.024 3.48533 178.077 3.592 178.184C3.688 178.28 3.736 178.403 3.736 178.552C3.736 178.701 3.688 178.824 3.592 178.92C3.464 179.027 3.336 179.08 3.208 179.08C3.05867 179.08 2.93067 179.027 2.824 178.92C2.728 178.824 2.68 178.701 2.68 178.552C2.68 178.403 2.728 178.28 2.824 178.184C2.92 178.077 3.048 178.024 3.208 178.024ZM3.016 180.728H3.4V190.296C3.4 191.544 2.77067 192.168 1.512 192.168H0.76V191.784H1.512C2.51467 191.784 3.016 191.288 3.016 190.296V180.728ZM6.82363 178.024C6.97296 178.024 7.09563 178.077 7.19163 178.184C7.29829 178.291 7.35163 178.413 7.35163 178.552C7.35163 178.691 7.29829 178.813 7.19163 178.92C7.08496 179.027 6.96229 179.08 6.82363 179.08C6.68496 179.08 6.56229 179.027 6.45563 178.92C6.34896 178.824 6.29563 178.701 6.29563 178.552C6.29563 178.403 6.34896 178.28 6.45563 178.184C6.55163 178.077 6.67429 178.024 6.82363 178.024ZM6.63163 180.728H7.01562V189H6.63163V180.728ZM12.897 180.504C14.9343 180.504 15.953 181.645 15.953 183.928V189H15.553V183.928C15.553 181.901 14.6677 180.888 12.897 180.888C12.097 180.888 11.4303 181.176 10.897 181.752C10.3637 182.317 10.081 183.064 10.049 183.992V189H9.665V180.728H10.049V182.344C10.305 181.779 10.6837 181.331 11.185 181C11.6863 180.669 12.257 180.504 12.897 180.504ZM21.416 180.504C23.0053 180.504 24.1093 181.277 24.728 182.824V180.728H25.112V188.344C25.112 191.043 23.9173 192.392 21.528 192.392C20.504 192.392 19.6987 192.147 19.112 191.656C18.568 191.208 18.232 190.557 18.104 189.704H18.488C18.616 190.419 18.9093 190.968 19.368 191.352C19.8907 191.789 20.6107 192.008 21.528 192.008C23.6613 192.008 24.728 190.787 24.728 188.344V186.52C24.12 188.045 23.016 188.808 21.416 188.808C20.232 188.808 19.304 188.376 18.632 187.512C18.024 186.723 17.72 185.773 17.72 184.664C17.72 183.533 18.024 182.584 18.632 181.816C19.304 180.941 20.232 180.504 21.416 180.504ZM21.416 180.888C20.3707 180.888 19.544 181.277 18.936 182.056C18.3813 182.739 18.104 183.608 18.104 184.664C18.104 185.709 18.3813 186.579 18.936 187.272C19.544 188.04 20.3707 188.424 21.416 188.424C22.4613 188.424 23.288 188.04 23.896 187.272C24.4507 186.557 24.728 185.688 24.728 184.664C24.728 183.629 24.4507 182.76 23.896 182.056C23.288 181.277 22.4613 180.888 21.416 180.888ZM30.5403 180.504C31.4683 180.504 32.2363 180.744 32.8443 181.224C33.4523 181.704 33.8096 182.419 33.9163 183.368H33.5323C33.4256 182.557 33.1109 181.939 32.5883 181.512C32.0443 181.096 31.3616 180.888 30.5403 180.888C29.5269 180.888 28.7216 181.283 28.1243 182.072C27.5483 182.808 27.2603 183.773 27.2603 184.968C27.2603 186.12 27.5323 187.048 28.0763 187.752C28.6523 188.477 29.4683 188.84 30.5243 188.84C32.2523 188.84 33.2709 187.933 33.5803 186.12H33.9643C33.8043 187.123 33.4309 187.891 32.8443 188.424C32.2469 188.957 31.4736 189.224 30.5243 189.224C29.3296 189.224 28.4123 188.808 27.7723 187.976C27.1749 187.219 26.8763 186.216 26.8763 184.968C26.8763 183.699 27.1909 182.653 27.8203 181.832C28.4816 180.947 29.3883 180.504 30.5403 180.504ZM38.8033 180.504C40.0726 180.504 41.0166 180.936 41.6353 181.8C42.1686 182.547 42.4673 183.613 42.5312 185H35.4753C35.5073 186.163 35.8219 187.091 36.4193 187.784C37.0273 188.488 37.8219 188.84 38.8033 188.84C39.6779 188.84 40.3926 188.595 40.9473 188.104C41.4059 187.677 41.7313 187.091 41.9233 186.344H42.3393C42.1473 187.155 41.7899 187.816 41.2673 188.328C40.6166 188.925 39.7953 189.224 38.8033 189.224C37.6833 189.224 36.7819 188.819 36.0993 188.008C35.4273 187.187 35.0913 186.136 35.0913 184.856C35.0913 183.651 35.4166 182.643 36.0673 181.832C36.7499 180.947 37.6619 180.504 38.8033 180.504ZM38.8033 180.888C37.8433 180.888 37.0593 181.245 36.4513 181.96C35.8539 182.653 35.5286 183.539 35.4753 184.616H42.1313C41.9606 182.131 40.8513 180.888 38.8033 180.888ZM47.3658 180.504C49.4031 180.504 50.4218 181.645 50.4218 183.928V189H50.0218V183.928C50.0218 181.901 49.1364 180.888 47.3658 180.888C46.5658 180.888 45.8991 181.176 45.3658 181.752C44.8324 182.317 44.5498 183.064 44.5178 183.992V189H44.1338V180.728H44.5178V182.344C44.7738 181.779 45.1524 181.331 45.6538 181C46.1551 180.669 46.7258 180.504 47.3658 180.504ZM53.4368 187.944C53.5861 187.944 53.7088 187.997 53.8048 188.104C53.9114 188.211 53.9648 188.333 53.9648 188.472C53.9648 188.611 53.9114 188.733 53.8048 188.84C53.6981 188.947 53.5754 189 53.4368 189C53.2981 189 53.1754 188.947 53.0688 188.84C52.9621 188.744 52.9088 188.621 52.9088 188.472C52.9088 188.323 52.9621 188.2 53.0688 188.104C53.1648 187.997 53.2874 187.944 53.4368 187.944ZM56.8463 177.352H57.2303V189H56.8463V177.352ZM60.4799 178.024C60.6292 178.024 60.7519 178.077 60.8479 178.184C60.9545 178.291 61.0079 178.413 61.0079 178.552C61.0079 178.691 60.9545 178.813 60.8479 178.92C60.7412 179.027 60.6185 179.08 60.4799 179.08C60.3412 179.08 60.2185 179.027 60.1119 178.92C60.0052 178.824 59.9519 178.701 59.9519 178.552C59.9519 178.403 60.0052 178.28 60.1119 178.184C60.2079 178.077 60.3305 178.024 60.4799 178.024ZM60.2879 180.728H60.6719V189H60.2879V180.728ZM66.5533 180.504C68.5906 180.504 69.6093 181.645 69.6093 183.928V189H69.2093V183.928C69.2093 181.901 68.3239 180.888 66.5533 180.888C65.7533 180.888 65.0866 181.176 64.5533 181.752C64.0199 182.317 63.7373 183.064 63.7053 183.992V189H63.3213V180.728H63.7053V182.344C63.9613 181.779 64.3399 181.331 64.8413 181C65.3426 180.669 65.9133 180.504 66.5533 180.504Z" fill="white"/>
</svg>
